# xmcd
#
# Track frame offsets:
# 150
# 20709
# 64727
# 87241
# 109762
# 116773
# 121395
# 131978
# 143513
# 153827
# 159952
# 165431
# 184846
# 206456
# 230023
# 242435
# 254017
# 259487
# 281754
# 297097
# 317124
#
# Disc length: 4323 seconds
#
#
# Revision: 0
# Processed by: cddbd v1.5.1PL0 Copyright (c) Steve Scherf et al.
# Submitted via: FreeRIP 2.90 
#
DISCID=3410e115
DTITLE=Fafner and Nominon - Demons of the Past
DYEAR=2004
DGENRE=Alt. Rock
TTITLE0=Fafner - Upon a Throne of Thorns
TTITLE1=Fafner - Doomed to Wander Alone
TTITLE2=Fafner - Han som Drogs i Djupet (vox)
TTITLE3=Fafner - Han som Drogs i Djupet (no vox)
TTITLE4=Fafner - Att Dricka Mörkret-Skymning
TTITLE5=Nominon - Intro: Voice Of The Obscure
TTITLE6=Nominon - My Flesh
TTITLE7=Nominon - Blodsblot
TTITLE8=Nominon - Brinn I Skarsald
TTITLE9=Nominon - Outro: In I Aspen
TTITLE10=Nominon - Intro
TTITLE11=Nominon - Whispers In The Polar Winds
TTITLE12=Nominon - Ur Skuggorna
TTITLE13=Nominon - Deep Bogs Of Depression
TTITLE14=Nominon - In This Cold Grave Of Mine
TTITLE15=Nominon - Frozen Mist Over Nordur
TTITLE16=Nominon - Outro: Dress Me in Ice
TTITLE17=Nominon - Cemetary of Life
TTITLE18=Nominon - My Flesh
TTITLE19=Nominon - Genocide
TTITLE20=Nominon - Outro
EXTD=
EXTT0=
EXTT1=
EXTT2=
EXTT3=
EXTT4=
EXTT5=
EXTT6=
EXTT7=
EXTT8=
EXTT9=
EXTT10=
EXTT11=
EXTT12=
EXTT13=
EXTT14=
EXTT15=
EXTT16=
EXTT17=
EXTT18=
EXTT19=
EXTT20=
PLAYORDER=
